<?xml version="1.0" encoding="UTF-8"?><svg xmlns="http://www.w3.org/2000/svg" viewBox="0 0 1520 1500"><defs><style>.cls-1{font-family:AristotelicaDisplayTrial-DmBd, 'Aristotelica Display Trial';font-size:330.36px;}.cls-1,.cls-2{fill:#f1e5e6;}.cls-3{letter-spacing:-.025em;}.cls-4{letter-spacing:-.035em;}.cls-5{fill:#eb2627;}.cls-6{fill:#212121;}.cls-7{letter-spacing:-.025em;}</style></defs><g id="Layer_2"><rect class="cls-6" width="1520" height="1500"/></g><g id="Layer_1"><text class="cls-1" transform="translate(626.611 727.978)"><tspan class="cls-4" x="0" y="0">R</tspan><tspan class="cls-7" x="175.583" y="0">ed</tspan><tspan class="cls-3"><tspan x="0" y="229.182">sheep</tspan></tspan></text><path class="cls-5" d="M282.185,909.114c-.342.313-.684.63-1.031.913l-.054-.884c.254-.029.625-.029,1.084-.029Z"/><path class="cls-5" d="M325.193,868.417c-.117.029-.259.059-.371.088.029-.313.083-.63.112-.943l.259.855Z"/><path class="cls-5" d="M558.025,752.716c-3.336-26.354-15.541-44.463-25.352-59.037-14.32-21.25-42.212-48.341-58.666-61.259,3.165-8.786,4.903-18.256,4.903-28.092,0-45.577-37.074-82.651-82.646-82.651-6.647,0-13.123.796-19.34,2.31-23.926-25.983-58.207-42.295-96.223-42.295-72.126,0-130.792,58.666-130.792,130.792,0,16.854,3.223,32.996,9.069,47.828-35.135,9.494-61.059,41.665-61.059,79.74,0,37.133,24.61,68.619,58.348,78.998-5.587,11.638-8.723,24.639-8.723,38.388,0,49.083,39.897,88.98,88.98,88.98,19.707,0,37.929-6.442,52.673-17.338.4.029.801.029,1.172.059,2.193.083,4.991.195,8.185.195,17.226,0,46.827-3.306,65.909-31.428,5.665-8.352,9.084-18.701,11.013-28.517,1.153-5.885.488-12.185.615-18.212.034-1.797.142-3.57.391-5.299.654-4.552,2.276-8.815,6.12-12.454,4.952-4.689,12.195-6.798,18.901-5.602.259.205.518.41.777.61,22.158,17.201,45.259,25.87,68.844,25.87,4.107,0,8.244-.259,12.351-.772,25.895-3.306,45.86-13.66,59.32-30.774,20.762-26.378,16.884-56.981,15.228-70.04ZM383.561,812.261c-6.515-.777-13.265,2.906-16.371,8.645-5.577-8.376-15.311-18.569-30.876-21.987-6.872-1.485-18.881-1.827-30.315,2.994-5.05,2.11-10.012,5.216-14.349,9.695-.513.542-1.138,1.197-1.851,2.027-5.734,6.559-16.43,21.787-9.128,37.846,4.22,9.294,13.206,15.599,23.843,17.768,6.188,1.28,13.602,1.055,20.307-.742.029-.313.083-.63.112-.943l-5.758-18.31c-5.421,1.514-10.471,1.001-14.232-.654-2.94-1.255-5.109-3.165-6.105-5.363-1.426-3.165-.112-7.243,1.998-10.837,1.568-2.764,3.59-5.275,5.133-6.872,3.253-3.336,7.101-5.28,10.867-6.359,7.814-2.227,15.14-.742,15.228-.742,15.399,3.394,21.733,19.135,22.417,20.933,7.502,19.966-3.424,42.749-6.53,47.34-10.642,15.687-25.899,20.708-38.847,22.163-6.989.796-13.318.542-17.909.342-2.168-.088-6.647-.142-9.011-.088-.342.313-.684.63-1.031.913-12.034,10.237-27.604,16.429-44.629,16.429-38.075,0-69.02-30.945-69.02-69.02,0-12.688,3.453-24.61,9.441-34.822,5.221-8.899,12.376-16.542,20.879-22.3-5.48,1.568-11.267,2.422-17.255,2.422-4.479,0-8.845-.484-13.065-1.397-28.317-6.017-49.621-31.203-49.621-61.288s21.499-55.501,50.051-61.376c4.078-.855,8.298-1.28,12.635-1.28,3.79,0,7.497.342,11.091.996-4.82-6.476-8.928-13.489-12.234-20.933-6.129-13.748-9.553-28.976-9.553-44.976,0-61.118,49.709-110.826,110.826-110.826,29.377,0,56.067,11.463,75.921,30.144,5.016,4.733,9.612,9.895,13.69,15.487,6.33-2.911,13.231-4.791,20.473-5.392,1.797-.171,3.624-.254,5.48-.254,34.564,0,62.685,28.117,62.685,62.685,0,33.426-26.324,60.829-59.32,62.597-1.114.059-2.227.088-3.365.088-3.111,0-6.164-.23-9.157-.654-2.139-2.168-4.391-3.995-6.642-5.563-4.908-3.477-9.9-5.763-14.149-7.243-4.049-1.426-8.215-2.398-12.376-2.969-8.415-1.197-16.972-.684-25.157,1.372-17.397,4.332-33.25,15.458-43.291,31.853-7.785,12.693-12.947,26.813-16.342,38.93-2.11,7.59-3.536,14.403-4.449,19.594-.967,5.563-1.397,9.299-1.485,10.212-.884,6.701-2.134,13.03-3.678,18.935-1.797,6.842-3.99,13.148-6.447,18.964-17.367,41.04-48.395,57.24-50.051,58.065l8.957,17.856c1.939-.972,39.213-20.078,59.574-68.336,2.51-5.958,4.767-12.317,6.647-19.165,2.081-7.414,3.707-15.37,4.82-23.897l.029-.288c.029-.112.484-4.591,1.797-11.463,1.055-5.534,2.681-12.605,5.045-20.249,2.94-9.382,7.018-19.594,12.605-28.718,9.641-15.746,26.583-24.757,43.55-24.327,4.591.112,9.211.938,13.66,2.481,3.966,1.397,7.443,3.194,10.413,5.475,2.535,1.91,4.733,4.161,6.53,6.73,2.252,3.106,3.966,6.73,5.133,10.808,2.139,7.302,2.652,16.112,1.597,26.554-1.084,10.637-6.046,20.219-13.602,26.295-10.183,8.185-21.792,8.723-35.535,1.621-1.768-1.426-7.531-6.359-10.925-13.743-2.652-5.734-3.878-12.918-.713-21.05.459-1.226.996-2.452,1.685-3.707l-17.597-9.441c-3.653,6.789-5.421,13.348-5.875,19.536-.513,7.16.742,13.807,3.052,19.765,4.42,11.551,12.659,20.449,19.106,25.157l1.197.737c13.118,6.989,26.153,9.157,38.104,6.505,4.176,11.023,11.34,25.367,23.277,39.018-.654-.195-1.333-.322-2.012-.405ZM527.109,810.41c-15.228,19.365-38.5,22.329-46.143,23.301-22.447,2.852-44.776-4.225-66.451-21.05-19.453-15.116-29.289-34.393-34.08-47.428.625-.425,1.255-.913,1.851-1.397,11.692-9.411,19.335-23.926,20.962-39.843,1.568-15.34.029-27.492-3.336-37.103,26.95-1.167,50.563-15.316,64.795-36.307,15.257,12.464,39.189,36.078,51.423,54.275,9.524,14.115,19.365,28.718,22.105,50.363,1.451,11.497,4.474,35.364-11.126,55.188Z"/><path class="cls-2" d="M538.235,755.222c-2.74-21.646-12.581-36.249-22.105-50.363-12.234-18.198-36.165-41.811-51.423-54.275-14.232,20.991-37.846,35.14-64.795,36.307,3.365,9.612,4.903,21.763,3.336,37.103-1.626,15.917-9.27,30.432-20.962,39.843-.596.484-1.226.972-1.851,1.397,4.791,13.035,14.627,32.312,34.08,47.428,21.675,16.825,44.004,23.902,66.451,21.05,7.643-.972,30.915-3.936,46.143-23.301,15.599-19.824,12.576-43.692,11.126-55.188ZM466.3,744.379c-13.499,0-24.439-10.945-24.439-24.444s10.94-24.439,24.439-24.439,24.444,10.94,24.444,24.439-10.945,24.444-24.444,24.444Z"/><path class="cls-2" d="M458.949,604.328c0,33.426-26.324,60.829-59.32,62.597-1.114.059-2.227.088-3.365.088-3.111,0-6.164-.23-9.157-.654-2.139-2.168-4.391-3.995-6.642-5.563-4.908-3.477-9.9-5.763-14.149-7.243-4.049-1.426-8.215-2.398-12.376-2.969-8.415-1.197-16.972-.684-25.157,1.372-17.397,4.332-33.25,15.458-43.291,31.853-7.785,12.693-12.947,26.813-16.342,38.93-2.11,7.59-3.536,14.403-4.449,19.594-.967,5.563-1.397,9.299-1.485,10.212-.884,6.701-2.134,13.03-3.678,18.935-1.797,6.842-3.99,13.148-6.447,18.964-17.367,41.04-48.395,57.24-50.051,58.065l8.957,17.856c1.939-.972,39.213-20.078,59.574-68.336,2.51-5.958,4.767-12.317,6.647-19.165,2.081-7.414,3.707-15.37,4.82-23.897l.029-.288c.029-.112.484-4.591,1.797-11.463,1.055-5.534,2.681-12.605,5.045-20.249,2.94-9.382,7.018-19.594,12.605-28.718,9.641-15.746,26.583-24.757,43.55-24.327,4.591.112,9.211.938,13.66,2.481,3.966,1.397,7.443,3.194,10.413,5.475,2.535,1.91,4.733,4.161,6.53,6.73,2.252,3.106,3.966,6.73,5.133,10.808,2.139,7.302,2.652,16.112,1.597,26.554-1.084,10.637-6.046,20.219-13.602,26.295-10.183,8.185-21.792,8.723-35.535,1.621-1.768-1.426-7.531-6.359-10.925-13.743-2.652-5.734-3.878-12.918-.713-21.05.459-1.226.996-2.452,1.685-3.707l-17.597-9.441c-3.653,6.789-5.421,13.348-5.875,19.536-.513,7.16.742,13.807,3.052,19.765,4.42,11.551,12.659,20.449,19.106,25.157l1.197.737c13.118,6.989,26.153,9.157,38.104,6.505,4.176,11.023,11.34,25.367,23.277,39.018-.654-.195-1.333-.322-2.012-.405-6.515-.777-13.265,2.906-16.371,8.645-5.577-8.376-15.311-18.569-30.876-21.987-6.872-1.485-18.881-1.827-30.315,2.994-5.05,2.11-10.012,5.216-14.349,9.695-.513.542-1.138,1.197-1.851,2.027-5.734,6.559-16.43,21.787-9.128,37.846,4.22,9.294,13.206,15.599,23.843,17.768,6.188,1.28,13.602,1.055,20.307-.742.112-.029.254-.059.371-.088l-.259-.855-5.758-18.31c-5.421,1.514-10.471,1.001-14.232-.654-2.94-1.255-5.109-3.165-6.105-5.363-1.426-3.165-.112-7.243,1.998-10.837,1.568-2.764,3.59-5.275,5.133-6.872,3.253-3.336,7.101-5.28,10.867-6.359,7.814-2.227,15.14-.742,15.228-.742,15.399,3.394,21.733,19.135,22.417,20.933,7.502,19.966-3.424,42.749-6.53,47.34-10.642,15.687-25.899,20.708-38.847,22.163-6.989.796-13.318.542-17.909.342-2.168-.088-6.647-.142-9.011-.088-.459,0-.83,0-1.084.029l.054.884c-12.034,10.237-27.604,16.429-44.629,16.429-38.075,0-69.02-30.945-69.02-69.02,0-12.688,3.453-24.61,9.441-34.822,5.221-8.899,12.376-16.542,20.879-22.3-5.48,1.568-11.267,2.422-17.255,2.422-4.479,0-8.845-.484-13.065-1.397-28.317-6.017-49.621-31.203-49.621-61.288s21.499-55.501,50.051-61.376c4.078-.855,8.298-1.28,12.635-1.28,3.79,0,7.497.342,11.091.996-4.82-6.476-8.928-13.489-12.234-20.933-6.129-13.748-9.553-28.976-9.553-44.976,0-61.118,49.709-110.826,110.826-110.826,29.377,0,56.067,11.463,75.921,30.144,5.016,4.733,9.612,9.895,13.69,15.487,6.33-2.911,13.231-4.791,20.473-5.392,1.797-.171,3.624-.254,5.48-.254,34.564,0,62.685,28.117,62.685,62.685Z"/><path class="cls-5" d="M490.744,719.935c0,13.499-10.945,24.444-24.444,24.444s-24.439-10.945-24.439-24.444,10.94-24.439,24.439-24.439,24.444,10.94,24.444,24.439Z"/></g></svg>