<?xml version="1.0" encoding="UTF-8"?><svg id="Layer_1" xmlns="http://www.w3.org/2000/svg" viewBox="0 0 2592.001 703.003"><defs><style>.cls-1,.cls-2{fill:#1a1718;}.cls-3{fill:#eb2627;}.cls-2{font-family:AristotelicaDisplayTrial-DmBd, 'Aristotelica Display Trial';font-size:440.879px;}.cls-4{letter-spacing:-.025em;}.cls-5{letter-spacing:-.035em;}</style></defs><path class="cls-3" d="M273.34,634.037c-.507.464-1.014.935-1.529,1.355l-.08-1.311c.377-.044.927-.044,1.608-.044Z"/><path class="cls-3" d="M337.137,573.666c-.174.044-.384.087-.551.13.043-.464.123-.935.167-1.398l.384,1.268Z"/><path class="cls-3" d="M682.519,402.036c-4.948-39.093-23.053-65.957-37.608-87.575-21.242-31.522-62.617-71.709-87.025-90.872,4.695-13.033,7.274-27.081,7.274-41.672,0-67.609-54.995-122.604-122.597-122.604-9.86,0-19.467,1.181-28.689,3.427C378.382,24.198,327.531,0,271.137,0,164.146,0,77.121,87.025,77.121,194.016c0,25.002,4.782,48.946,13.454,70.948C38.455,279.048,0,326.77,0,383.251c0,55.082,36.507,101.79,86.554,117.185-8.288,17.264-12.939,36.55-12.939,56.944,0,72.81,59.183,131.993,131.993,131.993,29.233,0,56.263-9.556,78.135-25.719.594.043,1.188.043,1.739.087,3.253.123,7.404.29,12.142.29,25.552,0,69.463-4.905,97.769-46.62,8.404-12.389,13.475-27.74,16.337-42.302,1.71-8.73.724-18.076.913-27.016.051-2.666.21-5.296.58-7.861.971-6.752,3.376-13.077,9.078-18.474,7.346-6.955,18.09-10.085,28.037-8.31.384.304.768.609,1.152.906,32.87,25.516,67.138,38.376,102.123,38.376,6.093,0,12.229-.384,18.322-1.145,38.412-4.905,68.029-20.264,87.996-45.65,30.798-39.129,25.045-84.525,22.589-103.898ZM423.72,490.365c-9.665-1.152-19.677,4.311-24.285,12.823-8.274-12.425-22.713-27.545-45.802-32.616-10.193-2.202-28.008-2.71-44.969,4.441-7.491,3.13-14.852,7.738-21.285,14.381-.761.804-1.688,1.775-2.746,3.007-8.505,9.73-24.372,32.319-13.541,56.14,6.26,13.787,19.59,23.14,35.369,26.357,9.179,1.898,20.177,1.565,30.124-1.101.043-.464.123-.935.167-1.398l-8.542-27.161c-8.042,2.246-15.533,1.485-21.111-.971-4.361-1.862-7.578-4.695-9.056-7.955-2.115-4.695-.167-10.744,2.963-16.076,2.326-4.101,5.325-7.824,7.614-10.193,4.825-4.948,10.534-7.832,16.12-9.433,11.592-3.304,22.459-1.101,22.589-1.101,22.843,5.035,32.239,28.385,33.254,31.051,11.128,29.617-5.079,63.414-9.686,70.224-15.786,23.27-38.419,30.718-57.625,32.877-10.367,1.181-19.757.804-26.567.507-3.217-.13-9.86-.21-13.367-.13-.507.464-1.014.935-1.529,1.355-17.851,15.185-40.948,24.371-66.203,24.371-56.481,0-102.384-45.903-102.384-102.384,0-18.822,5.122-36.507,14.004-51.655,7.745-13.2,18.358-24.538,30.972-33.08-8.129,2.326-16.714,3.593-25.596,3.593-6.644,0-13.12-.717-19.38-2.072-42.005-8.926-73.607-46.287-73.607-90.915s31.892-82.33,74.245-91.046c6.049-1.268,12.309-1.898,18.742-1.898,5.622,0,11.121.507,16.453,1.478-7.151-9.607-13.243-20.01-18.148-31.051-9.092-20.394-14.171-42.983-14.171-66.717,0-90.662,73.738-164.399,164.399-164.399,43.578,0,83.17,17.004,112.621,44.715,7.44,7.02,14.258,14.678,20.307,22.973,9.389-4.318,19.626-7.107,30.37-7.998,2.666-.254,5.376-.377,8.129-.377,51.272,0,92.987,41.708,92.987,92.987,0,49.584-39.05,90.234-87.996,92.857-1.652.087-3.304.13-4.992.13-4.615,0-9.143-.34-13.584-.971-3.173-3.217-6.513-5.926-9.853-8.252-7.281-5.158-14.685-8.549-20.988-10.744-6.006-2.116-12.186-3.557-18.358-4.405-12.483-1.775-25.176-1.014-37.318,2.036-25.806,6.426-49.323,22.93-64.218,47.251-11.548,18.829-19.206,39.774-24.241,57.748-3.13,11.258-5.245,21.365-6.6,29.066-1.434,8.252-2.072,13.794-2.202,15.149-1.311,9.94-3.166,19.329-5.455,28.088-2.666,10.15-5.919,19.503-9.563,28.132-25.763,60.878-71.789,84.909-74.245,86.134l13.287,26.487c2.876-1.442,58.169-29.783,88.372-101.369,3.724-8.839,7.071-18.271,9.86-28.429,3.086-10.998,5.499-22.799,7.151-35.449l.043-.428c.043-.167.717-6.81,2.666-17.004,1.565-8.208,3.977-18.699,7.484-30.037,4.361-13.917,10.411-29.066,18.699-42.6,14.301-23.357,39.434-36.724,64.602-36.086,6.81.167,13.664,1.391,20.264,3.68,5.883,2.072,11.041,4.738,15.446,8.121,3.76,2.833,7.02,6.173,9.686,9.983,3.34,4.608,5.883,9.983,7.614,16.033,3.173,10.831,3.934,23.901,2.369,39.39-1.608,15.779-8.969,29.994-20.177,39.006-15.105,12.142-32.326,12.939-52.713,2.405-2.623-2.116-11.172-9.433-16.207-20.387-3.934-8.505-5.752-19.162-1.058-31.225.681-1.818,1.478-3.637,2.499-5.499l-26.103-14.004c-5.419,10.07-8.042,19.8-8.715,28.979-.761,10.621,1.101,20.481,4.528,29.32,6.557,17.134,18.779,30.334,28.342,37.318l1.775,1.094c19.46,10.367,38.796,13.584,56.524,9.65,6.194,16.352,16.822,37.63,34.529,57.879-.971-.29-1.978-.478-2.985-.601ZM636.66,487.619c-22.589,28.726-57.111,33.123-68.449,34.565-33.297,4.231-66.42-6.267-98.573-31.225-28.856-22.423-43.447-51.018-50.554-70.354.927-.63,1.862-1.355,2.746-2.072,17.344-13.961,28.682-35.492,31.095-59.103,2.326-22.756.043-40.781-4.948-55.039,39.977-1.731,75.006-22.72,96.117-53.858,22.633,18.489,58.132,53.517,76.281,80.512,14.127,20.938,28.726,42.6,32.79,74.709,2.152,17.054,6.636,52.46-16.504,81.866Z"/><path class="cls-1" d="M653.163,405.753c-4.064-32.109-18.663-53.771-32.79-74.709-18.148-26.994-53.648-62.023-76.281-80.512-21.111,31.138-56.14,52.126-96.117,53.858,4.992,14.258,7.274,32.283,4.948,55.039-2.413,23.611-13.751,45.142-31.095,59.103-.884.717-1.818,1.442-2.746,2.072,7.107,19.336,21.698,47.932,50.554,70.354,32.152,24.958,65.276,35.456,98.573,31.225,11.338-1.442,45.86-5.839,68.449-34.565,23.14-29.407,18.655-64.812,16.504-81.866ZM546.455,389.67c-20.025,0-36.253-16.236-36.253-36.26s16.228-36.253,36.253-36.253,36.26,16.228,36.26,36.253-16.236,36.26-36.26,36.26Z"/><path class="cls-1" d="M535.551,181.917c0,49.584-39.05,90.234-87.996,92.857-1.652.087-3.304.13-4.992.13-4.615,0-9.143-.34-13.584-.971-3.173-3.217-6.513-5.926-9.853-8.252-7.281-5.158-14.685-8.549-20.988-10.744-6.006-2.116-12.186-3.557-18.358-4.405-12.483-1.775-25.176-1.014-37.318,2.036-25.806,6.426-49.323,22.93-64.218,47.251-11.548,18.829-19.206,39.774-24.241,57.748-3.13,11.258-5.245,21.365-6.6,29.066-1.434,8.252-2.072,13.794-2.202,15.149-1.311,9.94-3.166,19.329-5.455,28.088-2.666,10.15-5.919,19.503-9.563,28.132-25.763,60.878-71.789,84.909-74.245,86.134l13.287,26.487c2.876-1.442,58.169-29.783,88.372-101.369,3.724-8.839,7.071-18.271,9.86-28.429,3.086-10.998,5.499-22.799,7.151-35.449l.043-.428c.043-.167.717-6.81,2.666-17.004,1.565-8.208,3.977-18.699,7.484-30.037,4.361-13.917,10.411-29.066,18.699-42.6,14.301-23.357,39.434-36.724,64.602-36.086,6.81.167,13.664,1.391,20.264,3.68,5.883,2.072,11.041,4.738,15.446,8.121,3.76,2.833,7.02,6.173,9.686,9.983,3.34,4.608,5.883,9.983,7.614,16.033,3.173,10.831,3.934,23.901,2.369,39.39-1.608,15.779-8.969,29.994-20.177,39.006-15.105,12.142-32.326,12.939-52.713,2.405-2.623-2.116-11.172-9.433-16.207-20.387-3.934-8.505-5.752-19.162-1.058-31.225.681-1.818,1.478-3.637,2.499-5.499l-26.103-14.004c-5.419,10.07-8.042,19.8-8.715,28.979-.761,10.621,1.101,20.481,4.528,29.32,6.557,17.134,18.779,30.334,28.342,37.318l1.775,1.094c19.46,10.367,38.796,13.584,56.524,9.65,6.194,16.352,16.822,37.63,34.529,57.879-.971-.29-1.978-.478-2.985-.601-9.665-1.152-19.677,4.311-24.285,12.823-8.274-12.425-22.713-27.545-45.802-32.616-10.193-2.202-28.008-2.71-44.969,4.441-7.491,3.13-14.852,7.738-21.285,14.381-.761.804-1.688,1.775-2.746,3.007-8.505,9.73-24.372,32.319-13.541,56.14,6.26,13.787,19.59,23.14,35.369,26.357,9.179,1.898,20.177,1.565,30.124-1.101.167-.044.377-.087.551-.13l-.384-1.268-8.542-27.161c-8.042,2.246-15.533,1.485-21.111-.971-4.361-1.862-7.578-4.695-9.056-7.955-2.115-4.695-.167-10.744,2.963-16.076,2.326-4.101,5.325-7.824,7.614-10.193,4.825-4.948,10.534-7.832,16.12-9.433,11.592-3.304,22.459-1.101,22.589-1.101,22.843,5.035,32.239,28.385,33.254,31.051,11.128,29.617-5.079,63.414-9.686,70.224-15.786,23.27-38.419,30.718-57.625,32.877-10.367,1.181-19.757.804-26.567.507-3.217-.13-9.86-.21-13.367-.13-.681,0-1.232,0-1.608.044l.08,1.311c-17.851,15.185-40.948,24.371-66.203,24.371-56.481,0-102.384-45.903-102.384-102.384,0-18.822,5.122-36.507,14.004-51.655,7.745-13.2,18.358-24.538,30.972-33.08-8.129,2.326-16.714,3.593-25.596,3.593-6.644,0-13.12-.717-19.38-2.072-42.005-8.926-73.607-46.287-73.607-90.915s31.892-82.33,74.245-91.046c6.049-1.268,12.309-1.898,18.742-1.898,5.622,0,11.121.507,16.453,1.478-7.151-9.607-13.243-20.01-18.148-31.051-9.092-20.394-14.171-42.983-14.171-66.717,0-90.662,73.738-164.399,164.399-164.399,43.578,0,83.17,17.004,112.621,44.715,7.44,7.02,14.258,14.678,20.307,22.973,9.389-4.318,19.626-7.107,30.37-7.998,2.666-.254,5.376-.377,8.129-.377,51.272,0,92.987,41.708,92.987,92.987Z"/><path class="cls-3" d="M582.715,353.409c0,20.025-16.236,36.26-36.26,36.26s-36.253-16.236-36.253-36.26,16.228-36.253,36.253-36.253,36.26,16.228,36.26,36.253Z"/><text class="cls-2" transform="translate(744.08 555.528)"><tspan class="cls-5" x="0" y="0">R</tspan><tspan class="cls-4" x="234.322" y="0">ed sheep</tspan></text></svg>