<?xml version="1.0" encoding="UTF-8"?><svg id="Layer_1" xmlns="http://www.w3.org/2000/svg" viewBox="0 0 2590.333 702.551"><defs><style>.cls-1{font-family:AristotelicaDisplayTrial-DmBd, 'Aristotelica Display Trial';font-size:440.595px;}.cls-1,.cls-2{fill:#f1e5e6;}.cls-3{letter-spacing:-.035em;}.cls-4{letter-spacing:-.025em;}.cls-5{fill:#eb2627;}</style></defs><path class="cls-5" d="M273.164,633.629c-.507.463-1.014.934-1.528,1.354l-.08-1.311c.377-.043.927-.043,1.607-.043Z"/><path class="cls-5" d="M336.921,573.297c-.174.043-.384.087-.55.13.043-.463.123-.934.167-1.397l.384,1.267Z"/><path class="cls-5" d="M682.08,401.778c-4.945-39.068-23.038-65.914-37.584-87.519-21.228-31.502-62.577-71.663-86.969-90.813,4.692-13.025,7.269-27.064,7.269-41.645,0-67.565-54.96-122.525-122.518-122.525-9.854,0-19.454,1.18-28.671,3.425C378.139,24.182,327.32,0,270.963,0,164.04,0,77.071,86.969,77.071,193.891c0,24.986,4.778,48.914,13.445,70.903C38.431,278.869,0,326.56,0,383.004c0,55.047,36.483,101.724,86.498,117.109-8.283,17.253-12.931,36.527-12.931,56.908,0,72.764,59.145,131.908,131.908,131.908,29.214,0,56.227-9.55,78.085-25.703.594.043,1.187.043,1.738.087,3.251.123,7.399.29,12.135.29,25.536,0,69.419-4.902,97.706-46.59,8.399-12.381,13.467-27.723,16.327-42.275,1.709-8.724.724-18.064.912-26.999.051-2.664.21-5.293.579-7.856.97-6.748,3.374-13.068,9.072-18.462,7.342-6.951,18.079-10.078,28.019-8.304.384.304.767.608,1.151.905,32.849,25.5,67.095,38.351,102.057,38.351,6.089,0,12.221-.384,18.31-1.144,38.387-4.902,67.985-20.251,87.939-45.62,30.778-39.104,25.029-84.471,22.575-103.831ZM423.448,490.05c-9.658-1.151-19.664,4.308-24.269,12.815-8.268-12.417-22.698-27.527-45.772-32.595-10.187-2.201-27.99-2.708-44.94,4.438-7.486,3.128-14.842,7.733-21.272,14.372-.76.804-1.687,1.774-2.744,3.005-8.5,9.724-24.356,32.298-13.532,56.104,6.256,13.778,19.577,23.125,35.346,26.34,9.173,1.897,20.164,1.564,30.105-1.101.043-.463.123-.934.167-1.397l-8.536-27.143c-8.037,2.244-15.523,1.484-21.098-.97-4.359-1.861-7.573-4.692-9.05-7.95-2.114-4.692-.167-10.737,2.961-16.066,2.324-4.098,5.321-7.819,7.609-10.187,4.822-4.945,10.527-7.827,16.109-9.427,11.584-3.302,22.444-1.101,22.575-1.101,22.828,5.032,32.219,28.367,33.232,31.031,11.121,29.598-5.075,63.373-9.68,70.179-15.776,23.255-38.395,30.698-57.588,32.856-10.361,1.18-19.744.804-26.55.507-3.215-.13-9.854-.21-13.358-.13-.507.463-1.014.934-1.528,1.354-17.84,15.175-40.921,24.356-66.161,24.356-56.444,0-102.318-45.874-102.318-102.318,0-18.81,5.119-36.483,13.995-51.622,7.74-13.192,18.347-24.522,30.952-33.059-8.123,2.324-16.703,3.591-25.579,3.591-6.639,0-13.112-.717-19.367-2.071-41.978-8.92-73.56-46.257-73.56-90.857s31.871-82.277,74.197-90.987c6.046-1.267,12.301-1.897,18.73-1.897,5.618,0,11.114.507,16.442,1.477-7.146-9.6-13.235-19.997-18.137-31.031-9.086-20.381-14.162-42.956-14.162-66.675,0-90.603,73.69-164.294,164.294-164.294,43.55,0,83.117,16.993,112.548,44.686,7.436,7.016,14.249,14.669,20.294,22.959,9.383-4.315,19.614-7.103,30.351-7.993,2.664-.253,5.372-.377,8.123-.377,51.239,0,92.927,41.682,92.927,92.927,0,49.552-39.024,90.176-87.939,92.797-1.651.087-3.302.13-4.988.13-4.612,0-9.137-.34-13.575-.97-3.171-3.215-6.509-5.922-9.847-8.247-7.276-5.155-14.676-8.543-20.975-10.737-6.002-2.114-12.178-3.555-18.347-4.402-12.475-1.774-25.16-1.014-37.294,2.034-25.789,6.422-49.291,22.915-64.177,47.22-11.541,18.817-19.194,39.748-24.226,57.711-3.128,11.251-5.242,21.351-6.596,29.047-1.434,8.247-2.071,13.785-2.201,15.139-1.31,9.934-3.164,19.317-5.452,28.07-2.664,10.143-5.915,19.491-9.557,28.113-25.746,60.839-71.743,84.855-74.197,86.078l13.278,26.47c2.874-1.441,58.131-29.764,88.315-101.304,3.721-8.833,7.066-18.26,9.854-28.41,3.084-10.991,5.495-22.785,7.146-35.426l.043-.427c.043-.167.717-6.806,2.664-16.993,1.564-8.203,3.975-18.687,7.479-30.018,4.359-13.908,10.404-29.048,18.687-42.572,14.292-23.342,39.408-36.7,64.56-36.063,6.806.167,13.655,1.39,20.251,3.678,5.879,2.071,11.034,4.735,15.436,8.116,3.758,2.831,7.016,6.169,9.68,9.977,3.338,4.605,5.879,9.977,7.609,16.022,3.171,10.824,3.931,23.885,2.368,39.365-1.607,15.769-8.963,29.974-20.164,38.981-15.096,12.134-32.306,12.931-52.679,2.404-2.621-2.114-11.164-9.427-16.196-20.374-3.931-8.5-5.749-19.15-1.057-31.205.681-1.817,1.477-3.634,2.498-5.495l-26.086-13.995c-5.416,10.064-8.037,19.787-8.71,28.961-.76,10.614,1.1,20.468,4.525,29.301,6.552,17.123,18.766,30.315,28.323,37.294l1.774,1.093c19.447,10.361,38.771,13.575,56.488,9.644,6.19,16.341,16.812,37.605,34.507,57.842-.97-.29-1.977-.478-2.983-.601ZM636.25,487.306c-22.575,28.707-57.074,33.102-68.405,34.543-33.276,4.228-66.378-6.263-98.51-31.205-28.837-22.408-43.419-50.985-50.522-70.309.927-.63,1.861-1.354,2.744-2.071,17.333-13.952,28.664-35.47,31.075-59.065,2.324-22.741.043-40.755-4.945-55.004,39.951-1.73,74.957-22.705,96.055-53.823,22.618,18.477,58.095,53.483,76.232,80.46,14.118,20.924,28.707,42.572,32.769,74.661,2.15,17.043,6.632,52.426-16.493,81.814Z"/><path class="cls-2" d="M652.743,405.492c-4.062-32.088-18.651-53.736-32.769-74.661-18.137-26.977-53.613-61.983-76.232-80.46-21.098,31.118-56.104,52.093-96.055,53.823,4.988,14.249,7.269,32.262,4.945,55.004-2.411,23.596-13.742,45.113-31.075,59.065-.883.717-1.817,1.441-2.744,2.071,7.103,19.324,21.684,47.901,50.522,70.309,32.132,24.942,65.234,35.433,98.51,31.205,11.331-1.441,45.83-5.836,68.405-34.543,23.125-29.388,18.643-64.77,16.493-81.814ZM546.103,389.419c-20.012,0-36.23-16.225-36.23-36.237s16.218-36.23,36.23-36.23,36.237,16.218,36.237,36.23-16.225,36.237-36.237,36.237Z"/><path class="cls-2" d="M535.207,181.8c0,49.552-39.024,90.176-87.939,92.797-1.651.087-3.302.13-4.988.13-4.612,0-9.137-.34-13.575-.97-3.171-3.215-6.509-5.922-9.847-8.247-7.276-5.155-14.676-8.543-20.975-10.737-6.002-2.114-12.178-3.555-18.347-4.402-12.475-1.774-25.16-1.014-37.294,2.034-25.789,6.422-49.291,22.915-64.177,47.22-11.541,18.817-19.194,39.748-24.226,57.711-3.128,11.251-5.242,21.351-6.596,29.047-1.434,8.247-2.071,13.785-2.201,15.139-1.31,9.934-3.164,19.317-5.452,28.07-2.664,10.143-5.915,19.491-9.557,28.113-25.746,60.839-71.743,84.855-74.197,86.078l13.278,26.47c2.874-1.441,58.131-29.764,88.315-101.304,3.721-8.833,7.066-18.26,9.854-28.41,3.084-10.991,5.495-22.785,7.146-35.426l.043-.427c.043-.167.717-6.806,2.664-16.993,1.564-8.203,3.975-18.687,7.479-30.018,4.359-13.908,10.404-29.048,18.687-42.572,14.292-23.342,39.408-36.7,64.56-36.063,6.806.167,13.655,1.39,20.251,3.678,5.879,2.071,11.034,4.735,15.436,8.116,3.758,2.831,7.016,6.169,9.68,9.977,3.338,4.605,5.879,9.977,7.609,16.022,3.171,10.824,3.931,23.885,2.368,39.365-1.607,15.769-8.963,29.974-20.164,38.981-15.096,12.134-32.306,12.931-52.679,2.404-2.621-2.114-11.164-9.427-16.196-20.374-3.931-8.5-5.749-19.15-1.057-31.205.681-1.817,1.477-3.634,2.498-5.495l-26.086-13.995c-5.416,10.064-8.037,19.787-8.71,28.961-.76,10.614,1.1,20.468,4.525,29.301,6.552,17.123,18.766,30.315,28.323,37.294l1.774,1.093c19.447,10.361,38.771,13.575,56.488,9.644,6.19,16.341,16.812,37.605,34.507,57.842-.97-.29-1.977-.478-2.983-.601-9.658-1.151-19.664,4.308-24.269,12.815-8.268-12.417-22.698-27.527-45.772-32.595-10.187-2.201-27.99-2.708-44.94,4.438-7.486,3.128-14.842,7.733-21.272,14.372-.76.804-1.687,1.774-2.744,3.005-8.5,9.724-24.356,32.298-13.532,56.104,6.256,13.778,19.577,23.125,35.346,26.34,9.173,1.897,20.164,1.564,30.105-1.101.167-.043.377-.087.55-.13l-.384-1.267-8.536-27.143c-8.037,2.244-15.523,1.484-21.098-.97-4.359-1.861-7.573-4.692-9.05-7.95-2.114-4.692-.167-10.737,2.961-16.066,2.324-4.098,5.321-7.819,7.609-10.187,4.822-4.945,10.527-7.827,16.109-9.427,11.584-3.302,22.444-1.101,22.575-1.101,22.828,5.032,32.219,28.367,33.232,31.031,11.121,29.598-5.075,63.373-9.68,70.179-15.776,23.255-38.395,30.698-57.588,32.856-10.361,1.18-19.744.804-26.55.507-3.215-.13-9.854-.21-13.358-.13-.681,0-1.231,0-1.607.043l.08,1.311c-17.84,15.175-40.921,24.356-66.161,24.356-56.444,0-102.318-45.874-102.318-102.318,0-18.81,5.119-36.483,13.995-51.622,7.74-13.192,18.347-24.522,30.952-33.059-8.123,2.324-16.703,3.591-25.579,3.591-6.639,0-13.112-.717-19.367-2.071-41.978-8.92-73.56-46.257-73.56-90.857s31.871-82.277,74.197-90.987c6.046-1.267,12.301-1.897,18.73-1.897,5.618,0,11.114.507,16.442,1.477-7.146-9.6-13.235-19.997-18.137-31.031-9.086-20.381-14.162-42.956-14.162-66.675,0-90.603,73.69-164.294,164.294-164.294,43.55,0,83.117,16.993,112.548,44.686,7.436,7.016,14.249,14.669,20.294,22.959,9.383-4.315,19.614-7.103,30.351-7.993,2.664-.253,5.372-.377,8.123-.377,51.239,0,92.927,41.682,92.927,92.927Z"/><path class="cls-5" d="M582.34,353.182c0,20.012-16.225,36.237-36.237,36.237s-36.23-16.225-36.23-36.237,16.218-36.23,36.23-36.23,36.237,16.218,36.237,36.23Z"/><text class="cls-1" transform="translate(743.602 555.17)"><tspan class="cls-3" x="0" y="0">R</tspan><tspan class="cls-4" x="234.171" y="0">ed sheep</tspan></text></svg>