<?xml version="1.0" encoding="UTF-8"?><svg id="Layer_1" xmlns="http://www.w3.org/2000/svg" viewBox="0 0 2009.333 2014.667"><defs><style>.cls-1{fill:#ec2426;}.cls-2{fill:#070908;}</style></defs><path class="cls-1" d="M1854.617,1116.378c-11.988-94.711-55.851-159.794-91.113-212.169-51.463-76.369-151.703-173.73-210.835-220.155,11.374-31.576,17.622-65.61,17.622-100.959,0-163.796-133.238-297.033-297.016-297.033-23.888,0-47.162,2.861-69.506,8.302-85.987-93.377-209.185-152.001-345.811-152.001-259.209,0-470.044,210.835-470.044,470.044,0,60.572,11.584,118.582,32.594,171.887-126.269,34.121-219.436,149.737-219.436,286.572,0,133.448,88.445,246.606,209.694,283.904-20.08,41.826-31.348,88.55-31.348,137.959,0,176.398,143.383,319.781,319.781,319.781,70.823,0,136.309-23.151,189.299-62.31,1.439.105,2.879.105,4.212.21,7.881.298,17.938.702,29.417.702,61.906,0,168.289-11.883,236.865-112.948,20.36-30.014,32.647-67.207,39.58-102.486,4.142-21.15,1.755-43.792,2.212-65.452.123-6.459.509-12.831,1.404-19.044,2.352-16.358,8.179-31.681,21.993-44.758,17.798-16.85,43.827-24.432,67.926-20.132.93.737,1.861,1.475,2.791,2.194,79.634,61.818,162.655,92.973,247.414,92.973,14.761,0,29.628-.93,44.389-2.773,93.061-11.883,164.814-49.093,213.187-110.595,74.614-94.799,60.677-204.78,54.727-251.714ZM1227.622,1330.373c-23.414-2.791-47.671,10.444-58.835,31.067-20.044-30.102-55.026-66.733-110.964-79.019-24.696-5.336-67.856-6.564-108.946,10.759-18.149,7.583-35.982,18.746-51.568,34.841-1.843,1.948-4.09,4.3-6.652,7.284-20.606,23.572-59.045,78.3-32.805,136.011,15.165,33.402,47.461,56.061,85.689,63.855,22.238,4.598,48.883,3.791,72.981-2.668.105-1.123.298-2.264.404-3.388l-20.694-65.803c-19.483,5.441-37.632,3.598-51.147-2.352-10.566-4.511-18.359-11.374-21.94-19.272-5.125-11.374-.404-26.03,7.179-38.948,5.634-9.935,12.901-18.956,18.447-24.696,11.69-11.988,25.521-18.974,39.053-22.853,28.083-8.004,54.411-2.668,54.727-2.668,55.342,12.199,78.107,68.769,80.564,75.228,26.96,71.753-12.304,153.633-23.467,170.132-38.246,56.377-93.078,74.421-139.609,79.651-25.117,2.861-47.864,1.948-64.363,1.229-7.793-.316-23.888-.509-32.383-.316-1.229,1.124-2.457,2.264-3.704,3.282-43.248,36.789-99.204,59.045-160.391,59.045-136.836,0-248.045-111.21-248.045-248.045,0-45.6,12.409-88.445,33.928-125.146,18.763-31.98,44.477-59.449,75.035-80.143-19.693,5.634-40.493,8.706-62.011,8.706-16.095,0-31.787-1.738-46.952-5.02-101.767-21.624-178.329-112.14-178.329-220.261s77.264-199.462,179.873-220.577c14.656-3.072,29.821-4.599,45.407-4.599,13.62,0,26.942,1.229,39.861,3.581-17.324-23.274-32.085-48.479-43.968-75.228-22.028-49.409-34.332-104.136-34.332-161.637,0-219.647,178.645-398.291,398.291-398.291,105.576,0,201.498,41.195,272.847,108.331,18.026,17.008,34.542,35.56,49.198,55.658,22.747-10.461,47.548-17.219,73.578-19.378,6.459-.614,13.024-.913,19.693-.913,124.216,0,225.281,101.047,225.281,225.281,0,120.126-94.606,218.611-213.187,224.965-4.002.211-8.004.316-12.093.316-11.181,0-22.151-.825-32.91-2.352-7.688-7.793-15.779-14.358-23.871-19.992-17.64-12.497-35.578-20.712-50.848-26.03-14.551-5.125-29.522-8.618-44.477-10.672-30.242-4.3-60.993-2.458-90.411,4.932-62.52,15.569-119.494,55.552-155.581,114.474-27.978,45.618-46.531,96.361-58.729,139.908-7.582,27.276-12.708,51.761-15.99,70.419-3.475,19.992-5.02,33.419-5.336,36.701-3.177,24.082-7.67,46.829-13.217,68.049-6.459,24.59-14.34,47.25-23.169,68.155-62.415,147.49-173.923,205.71-179.873,208.677l32.191,64.17c6.968-3.493,140.925-72.156,214.1-245.588,9.022-21.413,17.131-44.266,23.888-68.874,7.477-26.644,13.322-55.236,17.324-85.882l.105-1.036c.105-.404,1.738-16.499,6.459-41.195,3.791-19.887,9.636-45.302,18.131-72.771,10.566-33.717,25.222-70.419,45.302-103.206,34.648-56.588,95.536-88.971,156.512-87.427,16.499.404,33.103,3.37,49.093,8.917,14.252,5.02,26.749,11.479,37.421,19.676,9.11,6.863,17.008,14.954,23.467,24.187,8.092,11.163,14.252,24.187,18.447,38.843,7.688,26.24,9.531,57.904,5.74,95.43-3.897,38.228-21.729,72.666-48.883,94.5-36.596,29.417-78.317,31.348-127.709,5.827-6.354-5.125-27.065-22.853-39.264-49.391-9.531-20.606-13.936-46.425-2.563-75.65,1.65-4.405,3.581-8.811,6.055-13.322l-63.24-33.928c-13.129,24.397-19.483,47.97-21.115,70.208-1.843,25.731,2.668,49.62,10.97,71.033,15.885,41.511,45.495,73.491,68.664,90.411l4.3,2.65c47.145,25.117,93.991,32.91,136.941,23.379,15.007,39.615,40.756,91.165,83.653,140.223-2.352-.702-4.792-1.158-7.231-1.457ZM1743.512,1323.721c-54.727,69.594-138.363,80.248-165.832,83.741-80.669,10.25-160.917-15.183-238.813-75.65-69.91-54.324-105.26-123.601-122.478-170.448,2.247-1.527,4.511-3.282,6.652-5.02,42.02-33.823,69.489-85.987,75.333-143.19,5.634-55.131.105-98.801-11.988-133.343,96.852-4.195,181.716-55.043,232.863-130.482,54.833,44.793,140.838,129.657,184.806,195.056,34.226,50.725,69.594,103.206,79.441,180.997,5.213,41.317,16.078,127.094-39.984,198.338Z"/><path class="cls-2" d="M1783.496,1125.383c-9.847-77.791-45.214-130.271-79.441-180.997-43.968-65.399-129.973-150.263-184.806-195.056-51.147,75.439-136.011,126.287-232.863,130.482,12.093,34.543,17.622,78.212,11.988,133.343-5.845,57.202-33.314,109.367-75.333,143.19-2.141,1.738-4.406,3.493-6.652,5.02,17.219,46.846,52.568,116.124,122.478,170.448,77.896,60.467,158.144,85.9,238.813,75.65,27.469-3.493,111.105-14.147,165.832-83.741,56.061-71.244,45.197-157.021,39.984-198.338ZM1524.972,1086.417c-48.514,0-87.83-39.334-87.83-87.848s39.317-87.831,87.83-87.831,87.848,39.316,87.848,87.831-39.334,87.848-87.848,87.848Z"/><path class="cls-2" d="M1498.556,583.095c0,120.126-94.606,218.611-213.187,224.965-4.002.211-8.004.316-12.093.316-11.181,0-22.151-.825-32.91-2.352-7.688-7.793-15.779-14.358-23.871-19.992-17.64-12.497-35.578-20.712-50.848-26.03-14.551-5.125-29.522-8.618-44.477-10.672-30.242-4.3-60.993-2.458-90.411,4.932-62.52,15.569-119.494,55.552-155.581,114.474-27.978,45.618-46.531,96.361-58.729,139.908-7.582,27.276-12.708,51.761-15.99,70.419-3.475,19.992-5.02,33.419-5.336,36.701-3.177,24.082-7.67,46.829-13.217,68.049-6.459,24.59-14.34,47.25-23.169,68.155-62.415,147.49-173.923,205.71-179.873,208.677l32.191,64.17c6.968-3.493,140.925-72.156,214.1-245.588,9.022-21.413,17.131-44.266,23.888-68.874,7.477-26.644,13.322-55.236,17.324-85.882l.105-1.036c.105-.404,1.738-16.499,6.459-41.195,3.791-19.887,9.636-45.302,18.131-72.771,10.566-33.717,25.222-70.419,45.302-103.206,34.648-56.588,95.536-88.971,156.512-87.427,16.499.404,33.103,3.37,49.093,8.917,14.252,5.02,26.749,11.479,37.421,19.676,9.11,6.863,17.008,14.954,23.467,24.187,8.092,11.163,14.252,24.187,18.447,38.843,7.688,26.24,9.531,57.904,5.74,95.43-3.897,38.228-21.729,72.666-48.883,94.5-36.596,29.417-78.317,31.348-127.709,5.827-6.354-5.125-27.065-22.853-39.264-49.391-9.531-20.606-13.936-46.425-2.563-75.65,1.65-4.405,3.581-8.811,6.055-13.322l-63.24-33.928c-13.129,24.397-19.483,47.97-21.115,70.208-1.843,25.731,2.668,49.62,10.97,71.033,15.885,41.511,45.495,73.491,68.664,90.411l4.3,2.65c47.145,25.117,93.991,32.91,136.941,23.379,15.007,39.615,40.756,91.165,83.653,140.223-2.352-.702-4.792-1.158-7.231-1.457-23.414-2.791-47.671,10.444-58.835,31.067-20.044-30.102-55.026-66.733-110.964-79.019-24.696-5.336-67.856-6.564-108.946,10.759-18.149,7.583-35.982,18.746-51.568,34.841-1.843,1.948-4.09,4.3-6.652,7.284-20.606,23.572-59.045,78.3-32.805,136.011,15.165,33.402,47.461,56.061,85.689,63.855,22.238,4.598,48.883,3.791,72.981-2.668.404-.105.913-.211,1.334-.316l-.93-3.072-20.694-65.803c-19.483,5.441-37.632,3.598-51.147-2.352-10.566-4.511-18.359-11.374-21.94-19.272-5.125-11.374-.404-26.03,7.179-38.948,5.634-9.935,12.901-18.956,18.447-24.696,11.69-11.988,25.521-18.974,39.053-22.853,28.083-8.004,54.411-2.668,54.727-2.668,55.342,12.199,78.107,68.769,80.564,75.228,26.96,71.753-12.304,153.633-23.467,170.132-38.246,56.377-93.078,74.421-139.609,79.651-25.117,2.861-47.864,1.948-64.363,1.229-7.793-.316-23.888-.509-32.383-.316-1.65,0-2.984,0-3.897.105l.193,3.177c-43.248,36.789-99.204,59.045-160.391,59.045-136.836,0-248.045-111.21-248.045-248.045,0-45.6,12.409-88.445,33.928-125.146,18.763-31.98,44.477-59.449,75.035-80.143-19.693,5.634-40.493,8.706-62.011,8.706-16.095,0-31.787-1.738-46.952-5.02-101.767-21.624-178.329-112.14-178.329-220.261s77.264-199.462,179.873-220.577c14.656-3.072,29.821-4.599,45.407-4.599,13.62,0,26.942,1.229,39.861,3.581-17.324-23.274-32.085-48.479-43.968-75.228-22.028-49.409-34.332-104.136-34.332-161.637,0-219.647,178.645-398.291,398.291-398.291,105.576,0,201.498,41.195,272.847,108.331,18.026,17.008,34.542,35.56,49.198,55.658,22.747-10.461,47.548-17.219,73.578-19.378,6.459-.614,13.024-.913,19.693-.913,124.216,0,225.281,101.047,225.281,225.281Z"/><path class="cls-1" d="M1612.82,998.569c0,48.514-39.334,87.848-87.848,87.848s-87.83-39.334-87.83-87.848,39.317-87.831,87.83-87.831,87.848,39.316,87.848,87.831Z"/></svg>