<?xml version="1.0" encoding="UTF-8"?><svg id="Layer_1" xmlns="http://www.w3.org/2000/svg" viewBox="0 0 2187.472 876.571"><defs><style>.cls-1{fill:#1a1718;}.cls-2{fill:#eb2627;}</style></defs><path class="cls-1" d="M905.245,87.211c0-4.177.771-8.082,2.316-11.718,1.542-3.633,3.632-6.767,6.268-9.402s5.766-4.723,9.402-6.269c3.632-1.541,7.447-2.316,11.446-2.316h100.017c17.986,0,34.883,3.228,50.689,9.675,15.807,6.451,29.659,15.355,41.56,26.708,11.897,11.356,21.257,24.8,28.07,40.333,6.813,15.534,10.22,32.295,10.22,50.281,0,12.174-1.635,23.846-4.905,35.02-3.271,11.174-7.903,21.44-13.899,30.795-5.996,9.36-13.128,17.809-21.393,25.346-8.27,7.541-17.489,13.945-27.662,19.213l50.417,60.772c3.087,2.909,5.356,6.226,6.813,9.947,1.452,3.727,2.133,7.495,2.044,11.311-.094,3.815-.864,7.541-2.316,11.173-1.457,3.637-3.637,6.813-6.541,9.539-2.909,2.908-6.042,5.041-9.402,6.404-3.364,1.362-6.771,2.044-10.22,2.044-7.452,0-13.993-2.815-19.622-8.448l-75.762-88.026h-68.404v67.587c0,3.998-.775,7.813-2.316,11.445-1.546,3.637-3.679,6.725-6.405,9.267-2.725,2.546-5.859,4.59-9.402,6.132-3.543,1.546-7.405,2.316-11.583,2.316-3.999,0-7.813-.771-11.446-2.316-3.637-1.542-6.771-3.586-9.402-6.132-2.636-2.542-4.727-5.63-6.268-9.267-1.546-3.632-2.316-7.447-2.316-11.445V87.211ZM964.384,116.644v133.537h70.856c9.811,0,19.03-1.725,27.661-5.178,8.627-3.449,16.122-8.129,22.483-14.035,6.358-5.902,11.399-12.852,15.125-20.849,3.722-7.992,5.586-16.53,5.586-25.617,0-9.266-1.865-18.029-5.586-26.299-3.726-8.265-8.768-15.487-15.125-21.666-6.362-6.174-13.856-11.037-22.483-14.58-8.631-3.543-17.761-5.313-27.389-5.313h-71.129Z"/><path class="cls-1" d="M1239.901,306.049c2.359,6.725,5.676,12.856,9.947,18.396,4.266,5.545,9.219,10.267,14.852,14.172,5.629,3.909,11.809,6.906,18.531,8.993,6.721,2.091,13.807,3.134,21.258,3.134,18.711,0,33.428-4.905,44.148-14.716,3.633-2.542,7.176-4.403,10.629-5.587,3.449-1.18,6.721-1.771,9.811-1.771,5.086,0,9.629,1.32,13.627,3.951,3.994,2.636,7.264,6.043,9.811,10.22,1.814,2.909,3.135,6.043,3.951,9.402.818,3.364.998,6.771.545,10.22-.455,3.453-1.545,6.86-3.27,10.22-1.729,3.364-4.318,6.404-7.768,9.13-3.998,3.637-8.541,7.132-13.625,10.492-5.09,3.364-10.949,6.314-17.578,8.856-6.635,2.547-14.082,4.591-22.348,6.132-8.27,1.542-17.578,2.317-27.934,2.317-17.986,0-34.883-3.407-50.689-10.22-15.807-6.813-29.615-16.122-41.424-27.935-11.812-11.808-21.167-25.57-28.07-41.287-6.907-15.713-10.356-32.567-10.356-50.554s3.449-34.883,10.356-50.689c6.902-15.807,16.258-29.569,28.07-41.288,11.809-11.719,25.618-20.984,41.424-27.798,15.807-6.812,32.703-10.219,50.689-10.219,17.803,0,34.564,3.363,50.281,10.083,15.713,6.724,29.521,15.854,41.424,27.389,11.896,11.54,21.346,25.119,28.342,40.742,6.992,15.628,10.582,32.342,10.766,50.146,0,8.358-2.684,15.125-8.039,20.303-5.361,5.178-12.4,7.767-21.121,7.767h-166.24ZM1374.528,256.995c-2.002-7.448-5.135-14.172-9.402-20.167-4.271-5.996-9.402-11.08-15.396-15.262-5.996-4.178-12.721-7.358-20.168-9.538-7.451-2.181-15.355-3.271-23.709-3.271s-16.217,1.137-23.574,3.406c-7.357,2.274-13.992,5.544-19.895,9.812-5.906,4.271-10.947,9.359-15.125,15.261-4.182,5.906-7.27,12.494-9.266,19.759h136.535Z"/><path class="cls-1" d="M1704.283,280.704c-.184,17.625-3.726,34.296-10.629,50.009-6.906,15.717-16.215,29.39-27.934,41.015-11.719,11.63-25.438,20.849-41.151,27.662-15.717,6.812-32.478,10.22-50.281,10.22-17.986,0-34.84-3.407-50.553-10.22-15.718-6.813-29.434-16.122-41.151-27.935-11.719-11.808-20.984-25.617-27.798-41.424s-10.22-32.609-10.22-50.417c0-17.986,3.406-34.883,10.22-50.689s16.079-29.569,27.798-41.288c11.718-11.719,25.434-20.984,41.151-27.798,15.713-6.812,32.566-10.219,50.553-10.219,13.082,0,25.571,1.864,37.473,5.586,11.897,3.727,23.028,8.951,33.385,15.671v-85.028c0-4.36.724-8.401,2.18-12.127,1.452-3.722,3.496-6.992,6.132-9.812,2.632-2.814,5.723-4.995,9.266-6.54,3.543-1.542,7.495-2.316,11.855-2.316,4.177,0,8.082.774,11.719,2.316,3.632,1.545,6.766,3.726,9.401,6.54,2.632,2.819,4.723,6.09,6.269,9.812,1.541,3.726,2.316,7.767,2.316,12.127v194.855ZM1645.146,279.614c0-9.811-1.865-19.03-5.587-27.661-3.727-8.627-8.814-16.122-15.262-22.483-6.451-6.357-13.945-11.399-22.483-15.125-8.542-3.722-17.714-5.587-27.525-5.587s-18.987,1.865-27.524,5.587c-8.542,3.726-16.037,8.768-22.483,15.125-6.451,6.361-11.493,13.856-15.125,22.483-3.637,8.631-5.451,17.851-5.451,27.661,0,9.632,1.814,18.762,5.451,27.389,3.632,8.632,8.627,16.173,14.988,22.62,6.357,6.451,13.853,11.539,22.483,15.261,8.627,3.727,17.851,5.587,27.661,5.587s18.983-1.86,27.525-5.587c8.538-3.722,16.032-8.81,22.483-15.261s11.535-13.988,15.262-22.62c3.722-8.627,5.587-17.757,5.587-27.389Z"/><path class="cls-1" d="M960.023,677.9c-7.814-3.271-15.9-6.902-24.255-10.901-8.359-3.994-15.99-8.856-22.892-14.58-6.907-5.723-12.583-12.536-17.033-20.439-4.454-7.903-6.677-17.395-6.677-28.479,0-11.446,2.27-21.845,6.813-31.204,4.54-9.355,10.854-17.348,18.941-23.982,8.082-6.63,17.667-11.719,28.751-15.262,11.08-3.543,23.254-5.313,36.518-5.313,7.631,0,15.534.592,23.71,1.771,8.176,1.185,15.943,3.092,23.301,5.724,7.358,2.636,13.941,6.089,19.758,10.355,5.812,4.271,10.262,9.402,13.354,15.398,2.725,5.816,3.679,11.582,2.862,17.305-.818,5.724-2.862,10.403-6.132,14.035-2.546,2.908-5.498,5.178-8.857,6.813-3.364,1.635-6.949,2.452-10.765,2.452-2.908,0-6.089-.724-9.539-2.18-3.815-2.359-7.315-4.45-10.492-6.269-3.181-1.813-6.451-3.359-9.811-4.633-3.364-1.269-6.907-2.223-10.629-2.861-3.726-.635-7.95-.954-12.672-.954-11.812,0-20.759,1.593-26.844,4.77-6.089,3.181-9.129,8.039-9.129,14.58,0,3.453,1.133,6.315,3.407,8.585,2.27,2.273,5.356,4.317,9.266,6.132,3.905,1.817,8.627,3.542,14.171,5.178,5.54,1.635,11.583,3.453,18.123,5.45,10.718,3.271,20.938,7.086,30.659,11.446,9.717,4.36,18.259,9.675,25.617,15.942,7.358,6.269,13.217,13.627,17.578,22.075,4.361,8.448,6.541,18.578,6.541,30.387,0,10.9-2.316,21.12-6.95,30.659-4.633,9.538-11.037,17.851-19.213,24.936-8.176,7.086-17.897,12.673-29.16,16.761-11.267,4.088-23.621,6.132-37.063,6.132-8.359,0-17.216-.775-26.571-2.316-9.359-1.542-18.442-4.178-27.252-7.903-8.814-3.722-16.943-8.538-24.391-14.444-7.452-5.901-13.447-13.217-17.987-21.938-3.27-5.995-4.905-11.582-4.905-16.76s1.133-9.718,3.406-13.626c2.27-3.905,5.451-6.95,9.539-9.13,4.088-2.181,8.584-3.271,13.49-3.271,4.36,0,8.899.954,13.626,2.861,4.723,1.908,9.445,4.952,14.171,9.13,2.18,2.726,4.905,5.314,8.176,7.767,3.271,2.453,6.903,4.634,10.901,6.541,3.995,1.907,8.312,3.406,12.945,4.497,4.633,1.09,9.491,1.635,14.58,1.635,4.539,0,8.81-.498,12.809-1.499,3.994-.996,7.537-2.406,10.628-4.224,3.087-1.814,5.54-3.994,7.358-6.541,1.814-2.542,2.725-5.45,2.725-8.721,0-3.815-2.001-7.312-5.996-10.492-3.999-3.177-8.857-6.132-14.58-8.857s-11.719-5.131-17.987-7.222c-6.268-2.087-11.582-3.858-15.942-5.314Z"/><path class="cls-1" d="M1352.731,755.57c0,3.998-.775,7.767-2.316,11.31-1.546,3.543-3.68,6.635-6.405,9.266-2.725,2.637-5.858,4.681-9.401,6.132-3.543,1.457-7.405,2.181-11.583,2.181-3.998,0-7.767-.724-11.31-2.181-3.543-1.451-6.677-3.495-9.402-6.132-2.725-2.631-4.862-5.723-6.404-9.266-1.546-3.543-2.316-7.312-2.316-11.31v-102.334c0-.634.09-1.226.272-1.771-.183-9.083-1.818-17.531-4.905-25.346-3.092-7.81-7.315-14.622-12.672-20.439-5.361-5.812-11.766-10.398-19.214-13.762-7.451-3.36-15.717-5.042-24.8-5.042-9.266,0-17.897,1.593-25.89,4.77-7.997,3.181-14.899,7.63-20.712,13.354-5.816,5.723-10.403,12.536-13.762,20.439-3.364,7.903-5.042,16.581-5.042,26.026v103.56c0,3.998-.775,7.813-2.316,11.446-1.546,3.636-3.637,6.771-6.268,9.401-2.636,2.637-5.723,4.727-9.266,6.269-3.542,1.546-7.405,2.316-11.582,2.316s-8.086-.771-11.719-2.316c-3.636-1.542-6.771-3.632-9.402-6.269-2.636-2.631-4.727-5.766-6.268-9.401-1.546-3.633-2.317-7.448-2.317-11.446v-291.875c0-4.178.771-8.082,2.317-11.719,1.541-3.632,3.679-6.813,6.404-9.538,2.725-2.726,5.902-4.859,9.538-6.404,3.632-1.542,7.448-2.316,11.446-2.316,4.177,0,8.04.774,11.582,2.316,3.543,1.545,6.63,3.679,9.266,6.404,2.631,2.725,4.722,5.906,6.268,9.538,1.542,3.637,2.316,7.541,2.316,11.719v88.843c9.445-7.63,19.665-13.579,30.659-17.85,10.99-4.268,22.573-6.404,34.747-6.404,17.259,0,33.248,3.316,47.965,9.946,14.717,6.635,27.432,15.628,38.153,26.98,10.718,11.356,19.119,24.663,25.209,39.925,6.085,15.262,9.13,31.523,9.13,48.782v102.197Z"/><path class="cls-1" d="M1441.297,684.168c2.359,6.725,5.676,12.856,9.947,18.396,4.267,5.544,9.219,10.267,14.853,14.171,5.629,3.909,11.808,6.907,18.531,8.993,6.72,2.091,13.806,3.135,21.258,3.135,18.71,0,33.427-4.906,44.148-14.717,3.633-2.542,7.176-4.403,10.629-5.587,3.449-1.18,6.72-1.771,9.811-1.771,5.085,0,9.628,1.32,13.627,3.952,3.994,2.636,7.264,6.042,9.811,10.22,1.813,2.908,3.134,6.042,3.951,9.401.818,3.364.997,6.771.545,10.22-.455,3.454-1.545,6.86-3.27,10.22-1.729,3.364-4.318,6.404-7.768,9.13-3.998,3.637-8.542,7.133-13.626,10.492-5.089,3.364-10.948,6.315-17.578,8.857-6.634,2.546-14.082,4.59-22.347,6.132-8.27,1.541-17.578,2.316-27.934,2.316-17.987,0-34.884-3.407-50.69-10.22-15.807-6.813-29.615-16.122-41.424-27.934-11.812-11.809-21.167-25.571-28.07-41.288-6.906-15.713-10.355-32.567-10.355-50.554s3.449-34.883,10.355-50.689c6.903-15.807,16.258-29.569,28.07-41.288,11.809-11.719,25.617-20.984,41.424-27.798,15.807-6.812,32.703-10.219,50.69-10.219,17.803,0,34.563,3.363,50.28,10.083,15.713,6.724,29.522,15.854,41.424,27.389,11.897,11.54,21.347,25.119,28.343,40.742,6.992,15.628,10.582,32.342,10.765,50.146,0,8.358-2.683,15.125-8.039,20.303-5.361,5.178-12.4,7.767-21.121,7.767h-166.24ZM1575.925,635.114c-2.002-7.448-5.136-14.172-9.402-20.167-4.271-5.996-9.402-11.08-15.397-15.262-5.996-4.178-12.72-7.358-20.167-9.538-7.452-2.181-15.355-3.271-23.71-3.271s-16.216,1.137-23.573,3.406c-7.358,2.274-13.993,5.544-19.895,9.812-5.906,4.271-10.948,9.359-15.125,15.261-4.182,5.906-7.27,12.494-9.267,19.759h136.536Z"/><path class="cls-1" d="M1711.914,684.168c2.359,6.725,5.676,12.856,9.947,18.396,4.267,5.544,9.219,10.267,14.853,14.171,5.629,3.909,11.808,6.907,18.531,8.993,6.72,2.091,13.806,3.135,21.258,3.135,18.71,0,33.427-4.906,44.148-14.717,3.633-2.542,7.176-4.403,10.629-5.587,3.449-1.18,6.72-1.771,9.811-1.771,5.085,0,9.628,1.32,13.627,3.952,3.994,2.636,7.264,6.042,9.811,10.22,1.813,2.908,3.134,6.042,3.951,9.401.818,3.364.997,6.771.545,10.22-.455,3.454-1.545,6.86-3.27,10.22-1.729,3.364-4.318,6.404-7.768,9.13-3.998,3.637-8.542,7.133-13.626,10.492-5.089,3.364-10.948,6.315-17.578,8.857-6.634,2.546-14.082,4.59-22.347,6.132-8.27,1.541-17.578,2.316-27.934,2.316-17.987,0-34.884-3.407-50.69-10.22-15.807-6.813-29.615-16.122-41.424-27.934-11.812-11.809-21.167-25.571-28.07-41.288-6.906-15.713-10.355-32.567-10.355-50.554s3.449-34.883,10.355-50.689c6.903-15.807,16.258-29.569,28.07-41.288,11.809-11.719,25.617-20.984,41.424-27.798,15.807-6.812,32.703-10.219,50.69-10.219,17.803,0,34.563,3.363,50.28,10.083,15.713,6.724,29.522,15.854,41.424,27.389,11.897,11.54,21.347,25.119,28.343,40.742,6.992,15.628,10.582,32.342,10.765,50.146,0,8.358-2.683,15.125-8.039,20.303-5.361,5.178-12.4,7.767-21.121,7.767h-166.24ZM1846.542,635.114c-2.002-7.448-5.136-14.172-9.402-20.167-4.271-5.996-9.402-11.08-15.397-15.262-5.996-4.178-12.72-7.358-20.167-9.538-7.452-2.181-15.355-3.271-23.71-3.271s-16.216,1.137-23.573,3.406c-7.358,2.274-13.993,5.544-19.895,9.812-5.906,4.271-10.948,9.359-15.125,15.261-4.182,5.906-7.27,12.494-9.267,19.759h136.536Z"/><path class="cls-1" d="M1927.755,657.733c0-17.986,3.449-34.836,10.355-50.554,6.902-15.713,16.258-29.475,28.07-41.287,11.808-11.809,25.57-21.121,41.287-27.935,15.713-6.812,32.474-10.219,50.281-10.219,17.987,0,34.884,3.406,50.689,10.219,15.807,6.813,29.569,16.126,41.288,27.935,11.719,11.812,20.938,25.574,27.661,41.287,6.72,15.718,10.084,32.567,10.084,50.554,0,17.808-3.364,34.611-10.084,50.418-6.724,15.806-15.942,29.615-27.661,41.424-11.719,11.812-25.481,21.12-41.288,27.934-15.806,6.812-32.702,10.22-50.689,10.22-13.081,0-25.574-1.865-37.472-5.587-11.902-3.722-23.029-8.946-33.385-15.67v79.305c0,4.36-.682,8.401-2.044,12.127-1.362,3.722-3.317,6.949-5.859,9.675-2.546,2.726-5.587,4.905-9.13,6.541-3.543,1.635-7.494,2.452-11.854,2.452-4.182,0-8.086-.817-11.719-2.452-3.637-1.636-6.813-3.815-9.538-6.541-2.726-2.726-4.905-5.953-6.541-9.675-1.635-3.726-2.452-7.767-2.452-12.127v-188.043ZM1986.893,657.733c0,9.632,1.86,18.762,5.587,27.389,3.722,8.632,8.81,16.173,15.262,22.62,6.446,6.451,13.94,11.54,22.482,15.262,8.538,3.726,17.715,5.586,27.525,5.586s19.03-1.86,27.661-5.586c8.628-3.722,16.122-8.811,22.483-15.262,6.357-6.447,11.353-13.988,14.989-22.62,3.632-8.627,5.45-17.757,5.45-27.389,0-9.811-1.818-19.03-5.45-27.661-3.637-8.627-8.632-16.122-14.989-22.483-6.361-6.357-13.855-11.399-22.483-15.125-8.631-3.722-17.85-5.587-27.661-5.587-9.632,0-18.762,1.865-27.389,5.587-8.632,3.726-16.173,8.768-22.619,15.125-6.452,6.361-11.54,13.856-15.262,22.483-3.727,8.631-5.587,17.851-5.587,27.661Z"/><path class="cls-2" d="M759.112,447.153c-5.504-43.48-25.64-73.358-41.828-97.403-23.626-35.06-69.644-79.756-96.791-101.069,5.222-14.496,8.09-30.12,8.09-46.349,0-75.196-61.167-136.363-136.355-136.363-10.967,0-21.651,1.313-31.909,3.811C420.845,26.913,364.287,0,301.564,0,182.566,0,85.776,96.791,85.776,215.789c0,27.808,5.318,54.439,14.963,78.91C42.771,310.363,0,363.441,0,426.259c0,61.264,40.603,113.213,96.267,130.335-9.218,19.202-14.391,40.652-14.391,63.335,0,80.981,65.824,146.806,146.806,146.806,32.513,0,62.577-10.628,86.904-28.605.661.048,1.321.048,1.934.097,3.618.137,8.235.322,13.505.322,28.42,0,77.259-5.455,108.74-51.852,9.347-13.779,14.988-30.853,18.17-47.05,1.902-9.71.806-20.104,1.015-30.048.056-2.965.234-5.89.645-8.743,1.08-7.51,3.755-14.544,10.096-20.547,8.171-7.736,20.12-11.216,31.184-9.242.427.338.854.677,1.281,1.007,36.558,28.38,74.672,42.682,113.583,42.682,6.777,0,13.602-.427,20.378-1.273,42.723-5.455,75.663-22.538,97.871-50.772,34.254-43.52,27.856-94.011,25.124-115.557ZM471.27,545.394c-10.749-1.281-21.885,4.794-27.01,14.262-9.202-13.819-25.261-30.636-50.942-36.276-11.337-2.45-31.152-3.014-50.015,4.939-8.332,3.481-16.519,8.606-23.674,15.995-.846.894-1.877,1.974-3.054,3.344-9.46,10.822-27.107,35.946-15.06,62.44,6.962,15.334,21.788,25.737,39.338,29.314,10.209,2.111,22.441,1.74,33.504-1.225.048-.516.137-1.039.185-1.555l-9.5-30.209c-8.944,2.498-17.276,1.652-23.481-1.08-4.851-2.071-8.429-5.221-10.072-8.847-2.353-5.221-.185-11.95,3.296-17.88,2.587-4.561,5.922-8.702,8.469-11.337,5.367-5.504,11.716-8.711,17.929-10.491,12.893-3.674,24.979-1.225,25.124-1.225,25.406,5.6,35.857,31.571,36.985,34.536,12.377,32.94-5.649,70.53-10.773,78.105-17.558,25.882-42.731,34.165-64.092,36.566-11.531,1.313-21.974.894-29.548.564-3.578-.145-10.967-.234-14.867-.145-.564.516-1.128,1.039-1.7,1.507-19.854,16.889-45.543,27.106-73.632,27.106-62.819,0-113.873-51.054-113.873-113.873,0-20.934,5.697-40.603,15.576-57.452,8.614-14.681,20.419-27.292,34.447-36.792-9.041,2.587-18.589,3.997-28.468,3.997-7.389,0-14.593-.798-21.555-2.305-46.719-9.927-81.868-51.482-81.868-101.118s35.471-91.569,82.577-101.263c6.728-1.41,13.69-2.111,20.846-2.111,6.253,0,12.369.564,18.299,1.644-7.953-10.685-14.73-22.256-20.185-34.536-10.113-22.683-15.761-47.807-15.761-74.205,0-100.836,82.013-182.848,182.848-182.848,48.468,0,92.504,18.912,125.259,49.733,8.275,7.808,15.858,16.325,22.586,25.551,10.443-4.803,21.829-7.905,33.778-8.896,2.965-.282,5.979-.419,9.041-.419,57.025,0,103.422,46.389,103.422,103.422,0,55.148-43.432,100.36-97.87,103.277-1.837.097-3.674.145-5.552.145-5.133,0-10.169-.379-15.108-1.08-3.529-3.578-7.244-6.591-10.959-9.178-8.098-5.737-16.333-9.508-23.344-11.95-6.68-2.353-13.553-3.956-20.419-4.899-13.884-1.974-28.001-1.128-41.506,2.264-28.702,7.147-54.858,25.503-71.425,52.553-12.844,20.942-21.361,44.238-26.961,64.229-3.481,12.522-5.834,23.763-7.341,32.328-1.595,9.178-2.305,15.342-2.45,16.849-1.458,11.055-3.521,21.498-6.068,31.24-2.965,11.289-6.583,21.692-10.636,31.289-28.654,67.71-79.845,94.438-82.577,95.8l14.778,29.459c3.199-1.604,64.696-33.126,98.289-112.745,4.142-9.831,7.864-20.322,10.967-31.619,3.433-12.232,6.116-25.358,7.953-39.427l.048-.475c.048-.185.798-7.574,2.965-18.912,1.74-9.13,4.424-20.797,8.324-33.408,4.851-15.479,11.579-32.328,20.797-47.38,15.906-25.978,43.859-40.845,71.852-40.136,7.574.185,15.197,1.547,22.538,4.093,6.543,2.305,12.28,5.27,17.179,9.033,4.182,3.151,7.808,6.865,10.773,11.104,3.715,5.125,6.543,11.104,8.469,17.832,3.529,12.047,4.375,26.583,2.635,43.81-1.789,17.55-9.976,33.359-22.441,43.383-16.801,13.505-35.954,14.391-58.629,2.675-2.917-2.353-12.425-10.491-18.025-22.675-4.375-9.46-6.398-21.313-1.176-34.729.757-2.022,1.644-4.045,2.78-6.116l-29.032-15.576c-6.027,11.2-8.944,22.022-9.694,32.231-.846,11.813,1.225,22.78,5.036,32.61,7.292,19.057,20.886,33.738,31.522,41.506l1.974,1.217c21.643,11.531,43.15,15.108,62.867,10.733,6.889,18.186,18.71,41.852,38.404,64.374-1.08-.322-2.2-.532-3.32-.669ZM708.106,542.341c-25.124,31.949-63.52,36.84-76.13,38.444-37.034,4.706-73.874-6.97-109.635-34.729-32.094-24.939-48.323-56.743-56.228-78.25,1.031-.701,2.071-1.507,3.054-2.305,19.29-15.527,31.901-39.475,34.584-65.736,2.587-25.31.048-45.358-5.504-61.215,44.463-1.926,83.423-25.269,106.903-59.902,25.173,20.564,64.656,59.523,84.841,89.547,15.713,23.287,31.949,47.38,36.47,83.092,2.393,18.968,7.381,58.347-18.356,91.054Z"/><path class="cls-1" d="M726.462,451.287c-4.52-35.712-20.757-59.805-36.47-83.092-20.185-30.023-59.668-68.983-84.841-89.547-23.481,34.633-62.44,57.976-106.903,59.902,5.552,15.858,8.09,35.906,5.504,61.215-2.683,26.26-15.294,50.208-34.584,65.736-.983.798-2.023,1.604-3.054,2.305,7.905,21.506,24.133,53.311,56.228,78.25,35.761,27.759,72.601,39.435,109.635,34.729,12.611-1.604,51.006-6.495,76.13-38.444,25.737-32.707,20.749-72.085,18.356-91.054ZM607.778,433.399c-22.272,0-40.321-18.058-40.321-40.329s18.05-40.321,40.321-40.321,40.329,18.049,40.329,40.321-18.058,40.329-40.329,40.329Z"/><path class="cls-1" d="M595.651,202.332c0,55.148-43.432,100.36-97.87,103.277-1.837.097-3.674.145-5.552.145-5.133,0-10.169-.379-15.108-1.08-3.529-3.578-7.244-6.591-10.959-9.178-8.098-5.737-16.333-9.508-23.344-11.95-6.68-2.353-13.553-3.956-20.419-4.899-13.884-1.974-28.001-1.128-41.506,2.264-28.702,7.147-54.858,25.503-71.425,52.553-12.844,20.942-21.361,44.238-26.961,64.229-3.481,12.522-5.834,23.763-7.341,32.328-1.595,9.178-2.305,15.342-2.45,16.849-1.458,11.055-3.521,21.498-6.068,31.24-2.965,11.289-6.583,21.692-10.636,31.289-28.654,67.71-79.845,94.438-82.577,95.8l14.778,29.459c3.199-1.604,64.696-33.126,98.289-112.745,4.142-9.831,7.864-20.322,10.967-31.619,3.433-12.232,6.116-25.358,7.953-39.427l.048-.475c.048-.185.798-7.574,2.965-18.912,1.74-9.13,4.424-20.797,8.324-33.408,4.851-15.479,11.579-32.328,20.797-47.38,15.906-25.978,43.859-40.845,71.852-40.136,7.574.185,15.197,1.547,22.538,4.093,6.543,2.305,12.28,5.27,17.179,9.033,4.182,3.151,7.808,6.865,10.773,11.104,3.715,5.125,6.543,11.104,8.469,17.832,3.529,12.047,4.375,26.583,2.635,43.81-1.789,17.55-9.976,33.359-22.441,43.383-16.801,13.505-35.954,14.391-58.629,2.675-2.917-2.353-12.425-10.491-18.025-22.675-4.375-9.46-6.398-21.313-1.176-34.729.757-2.022,1.644-4.045,2.78-6.116l-29.032-15.576c-6.027,11.2-8.944,22.022-9.694,32.231-.846,11.813,1.225,22.78,5.036,32.61,7.292,19.057,20.886,33.738,31.522,41.506l1.974,1.217c21.643,11.531,43.15,15.108,62.867,10.733,6.889,18.186,18.71,41.852,38.404,64.374-1.08-.322-2.2-.532-3.32-.669-10.749-1.281-21.885,4.794-27.01,14.262-9.202-13.819-25.261-30.636-50.942-36.276-11.337-2.45-31.152-3.014-50.015,4.939-8.332,3.481-16.519,8.606-23.674,15.995-.846.894-1.877,1.974-3.054,3.344-9.46,10.822-27.107,35.946-15.06,62.44,6.962,15.334,21.788,25.737,39.338,29.314,10.209,2.111,22.441,1.74,33.504-1.225.185-.048.419-.097.612-.145l-.427-1.41-9.5-30.209c-8.944,2.498-17.276,1.652-23.481-1.08-4.851-2.071-8.429-5.221-10.072-8.847-2.353-5.221-.185-11.95,3.296-17.88,2.587-4.561,5.922-8.702,8.469-11.337,5.367-5.504,11.716-8.711,17.929-10.491,12.893-3.674,24.979-1.225,25.124-1.225,25.406,5.6,35.857,31.571,36.985,34.536,12.377,32.94-5.649,70.53-10.773,78.105-17.558,25.882-42.731,34.165-64.092,36.566-11.531,1.313-21.974.894-29.548.564-3.578-.145-10.967-.234-14.867-.145-.757,0-1.37,0-1.789.048l.089,1.459c-19.854,16.889-45.543,27.106-73.632,27.106-62.819,0-113.873-51.054-113.873-113.873,0-20.934,5.697-40.603,15.576-57.452,8.614-14.681,20.419-27.292,34.447-36.792-9.041,2.587-18.589,3.997-28.468,3.997-7.389,0-14.593-.798-21.555-2.305-46.719-9.927-81.868-51.482-81.868-101.118s35.471-91.569,82.577-101.263c6.728-1.41,13.69-2.111,20.846-2.111,6.253,0,12.369.564,18.299,1.644-7.953-10.685-14.73-22.256-20.185-34.536-10.113-22.683-15.761-47.807-15.761-74.205,0-100.836,82.013-182.848,182.848-182.848,48.468,0,92.504,18.912,125.259,49.733,8.275,7.808,15.858,16.325,22.586,25.551,10.443-4.803,21.829-7.905,33.778-8.896,2.965-.282,5.979-.419,9.041-.419,57.025,0,103.422,46.389,103.422,103.422Z"/><path class="cls-2" d="M648.108,393.069c0,22.272-18.058,40.329-40.329,40.329s-40.321-18.058-40.321-40.329,18.05-40.321,40.321-40.321,40.329,18.049,40.329,40.321Z"/></svg>